<svg width="38" height="38" viewBox="0 0 38 38" version="1.1" xmlns="http://www.w3.org/2000/svg" xmlns:xlink="http://www.w3.org/1999/xlink">
<g id="Canvas" transform="translate(-1541 -5516)">
<g id="fb">
<use xlink:href="#path0_fill" transform="translate(1541 5516)" fill="#9B9B9B"/>
</g>
</g>
<defs>
<path id="path0_fill" fill-rule="evenodd" d="M 18.8285 0C 8.44649 0 0 8.52344 0 19C 0 29.4758 8.44649 38 18.8285 38C 29.2097 38 37.6569 29.4758 37.6569 19C 37.6569 8.52344 29.2112 0 18.8285 0ZM 23.312 19.4441L 20.3112 19.4441C 20.3112 24.2821 20.3112 30.2371 20.3112 30.2371L 15.8646 30.2371C 15.8646 30.2371 15.8646 24.3398 15.8646 19.4441L 13.7509 19.4441L 13.7509 15.6295L 15.8646 15.6295L 15.8646 13.1621C 15.8646 11.395 16.6967 8.63379 20.352 8.63379L 23.647 8.64653L 23.647 12.3494C 23.647 12.3494 21.6448 12.3494 21.2555 12.3494C 20.8661 12.3494 20.3126 12.5459 20.3126 13.3885L 20.3126 15.6302L 23.7005 15.6302L 23.312 19.4441Z"/>
</defs>
</svg>
