<svg width="38" height="38" viewBox="0 0 38 38" version="1.1" xmlns="http://www.w3.org/2000/svg" xmlns:xlink="http://www.w3.org/1999/xlink">
<g id="Canvas" transform="translate(-1683 -5516)">
<g id="ok">
<use xlink:href="#path0_fill" transform="translate(1683.34 5516)" fill="#9B9B9B"/>
</g>
</g>
<defs>
<path id="path0_fill" fill-rule="evenodd" d="M 18.9681 15.7468C 20.766 15.7402 22.198 14.2828 22.1914 12.4646C 22.1849 10.6456 20.7498 9.19833 18.9512 9.19678C 17.1375 9.19484 15.689 10.669 15.7029 12.5042C 15.7163 14.3158 17.1644 15.7534 18.9681 15.7468ZM 18.8285 0C 8.42975 0 0 8.50695 0 19C 0 29.4931 8.42975 38 18.8285 38C 29.2271 38 37.6569 29.4931 37.6569 19C 37.6569 8.50695 29.2271 0 18.8285 0ZM 18.8555 5.77786C 22.5229 5.78796 25.4665 8.81514 25.4476 12.5568C 25.4291 16.2122 22.4374 19.1749 18.7761 19.1624C 15.1522 19.15 12.1801 16.1181 12.2017 12.4554C 12.2221 8.75255 15.1957 5.76775 18.8555 5.77786ZM 26.2836 21.7922C 25.4727 22.6322 24.4965 23.2402 23.4124 23.6644C 22.3877 24.0652 21.2647 24.2669 20.1529 24.4014C 20.3213 24.5857 20.4002 24.6763 20.505 24.782C 22.0136 26.3125 23.5295 27.8352 25.0331 29.37C 25.5455 29.8933 25.6522 30.5417 25.3702 31.1493C 25.0624 31.8141 24.3717 32.251 23.694 32.204C 23.2649 32.174 22.9301 31.9591 22.6331 31.657C 21.4943 30.5009 20.334 29.3653 19.2191 28.1874C 18.8936 27.8446 18.7379 27.9099 18.4509 28.2076C 17.3056 29.398 16.1415 30.5693 14.9707 31.7344C 14.4449 32.2576 13.8192 32.3525 13.209 32.0531C 12.5607 31.7367 12.1485 31.0684 12.1801 30.3963C 12.2024 29.943 12.4235 29.5955 12.7325 29.2853C 14.2261 27.7812 15.715 26.2725 17.2043 24.7649C 17.3033 24.665 17.395 24.5589 17.5387 24.4034C 15.5074 24.1892 13.6756 23.6846 12.1073 22.4472C 11.9123 22.2933 11.7116 22.1448 11.5344 21.9721C 10.8475 21.307 10.7786 20.5447 11.3214 19.7602C 11.7863 19.0884 12.5661 18.9088 13.377 19.2948C 13.5342 19.3691 13.6836 19.4632 13.8269 19.5627C 16.7494 21.5892 20.7643 21.6448 23.6983 19.6533C 23.9887 19.4294 24.2996 19.2451 24.6598 19.1522C 25.3594 18.9702 26.0128 19.2303 26.388 19.8484C 26.8175 20.5548 26.8125 21.2436 26.2836 21.7922Z"/>
</defs>
</svg>
