<svg width="39" height="38" viewBox="0 0 39 38" version="1.1" xmlns="http://www.w3.org/2000/svg" xmlns:xlink="http://www.w3.org/1999/xlink">
<g id="Canvas" transform="translate(-1612 -5516)">
<g id="vk">
<use xlink:href="#path0_fill" transform="translate(1612.55 5516)" fill="#9B9B9B"/>
</g>
</g>
<defs>
<path id="path0_fill" fill-rule="evenodd" d="M 18.8285 0C 8.43014 0 0 8.50656 0 19C 0 29.4934 8.43014 38 18.8285 38C 29.2268 38 37.6569 29.4934 37.6569 19C 37.6569 8.50656 29.2268 0 18.8285 0ZM 27.0623 21.6581C 27.8438 22.4283 28.6705 23.1531 29.372 24.003C 29.6828 24.3789 29.9758 24.7676 30.1987 25.2049C 30.5171 25.8283 30.2296 26.512 29.6766 26.549L 26.2418 26.5483C 25.3547 26.6224 24.6487 26.2613 24.0535 25.6493C 23.5784 25.1616 23.1376 24.6406 22.68 24.1362C 22.4931 23.9292 22.2962 23.7344 22.0615 23.581C 21.5933 23.2736 21.1864 23.3678 20.9182 23.8614C 20.6448 24.3637 20.5823 24.9203 20.5563 25.4794C 20.5189 26.2967 20.2746 26.5102 19.462 26.5487C 17.7255 26.6307 16.0779 26.3648 14.5466 25.4814C 13.1957 24.7022 12.1501 23.6025 11.239 22.3573C 9.46482 19.93 8.10605 17.2659 6.88518 14.5254C 6.6104 13.9081 6.81142 13.5779 7.48618 13.5651C 8.60723 13.5433 9.72828 13.5461 10.8493 13.5641C 11.3056 13.5713 11.6074 13.8348 11.7827 14.2692C 12.3885 15.7733 13.1312 17.2043 14.0619 18.5315C 14.3099 18.8849 14.5631 19.2373 14.9236 19.4869C 15.3215 19.7625 15.6248 19.6714 15.8124 19.2231C 15.9325 18.9383 15.9843 18.6336 16.0103 18.3283C 16.0995 17.2826 16.1102 16.2371 15.9558 15.1955C 15.8597 14.5437 15.4965 14.1228 14.8526 13.9995C 14.5246 13.9369 14.5727 13.8143 14.7322 13.6253C 15.009 13.2986 15.2683 13.0964 15.7867 13.0964L 19.6675 13.0957C 20.2791 13.2169 20.4163 13.4938 20.4993 14.1155L 20.5028 18.4675C 20.4956 18.7081 20.6225 19.4212 21.0506 19.5787C 21.3936 19.6929 21.62 19.4153 21.8252 19.1961C 22.7558 18.1995 23.4189 17.0233 24.0127 15.8058C 24.2748 15.2689 24.5009 14.7133 24.7204 14.1567C 24.8837 13.7451 25.1375 13.5426 25.5979 13.5495L 29.335 13.554C 29.4451 13.554 29.5569 13.5551 29.666 13.5741C 30.2958 13.6828 30.4684 13.9563 30.2735 14.5762C 29.9668 15.5503 29.371 16.3618 28.7885 17.1752C 28.1642 18.0462 27.4983 18.8867 26.8802 19.7614C 26.3121 20.5611 26.357 20.9637 27.0623 21.6581Z"/>
</defs>
</svg>

