<svg width="690" height="995" viewBox="0 0 690 995" version="1.1" xmlns="http://www.w3.org/2000/svg" xmlns:xlink="http://www.w3.org/1999/xlink">
              <g id="Canvas" transform="translate(-1741 -2027)">
              <g id="logo copy 4" opacity="0.07">
              <use xlink:href="#path0_fill" transform="matrix(-0.798635 0.601815 0.601815 0.798635 2157.69 1919.19)" fill="#66BB6A"/>
              </g>
              </g>
              <defs>
              <path id="path0_fill" fill-rule="evenodd" d="M 123.761 840.038C 7.21479 688.273 -40.9338 473.523 40.6024 346.49C 78.9611 286.728 133.055 253.008 190.139 242.794C 156.958 185.782 150.911 115.846 170.496 35.5645L 179.172 5.43921e-06L 215.41 0.250118C 279.355 0.691316 335.106 18.5231 381.123 53.9416C 420.983 84.6214 454.595 129.308 482.499 187.443L 399.842 227.979C 377.822 182.102 352.849 148.903 325.465 127.825C 304.722 111.86 280.636 101.368 252.674 96.4177C 247.455 142.607 255.988 179.083 277.219 207.661C 303.738 243.359 351.737 269.298 423.091 283.874C 435.12 282.759 447.964 280.041 460.975 276.04C 473.339 272.238 484.636 267.628 491 264.402C 588.456 215.001 711.243 237.19 781.398 346.49C 862.934 473.523 814.785 688.273 698.239 840.038C 651.901 900.378 594.44 934.188 527.884 938.525C 490.706 940.948 451.71 934.078 411 918.384C 369.572 934.354 329.917 941.187 292.156 938.388C 226.407 933.515 169.633 899.771 123.761 840.038ZM 196.135 781.174C 100.801 657.55 61.5173 483.07 117.402 396.366C 160.026 330.235 231.276 317.413 289.703 346.907C 320.033 362.217 367.584 376.638 410.931 376.704C 455.261 376.772 500.704 362.855 532.297 346.907C 590.724 317.413 661.974 330.235 704.598 396.367C 760.483 483.07 721.199 657.549 625.865 781.174C 594.899 821.329 560.981 841.203 522.076 843.728C 495.042 845.482 464.244 839.024 429.522 823.642L 411 815.435L 392.478 823.642C 357.26 839.244 326.085 845.664 298.771 843.648C 260.374 840.814 226.805 820.946 196.135 781.174Z"/>
              </defs>
              </svg>