<svg width="36" height="36" viewBox="0 0 36 36" version="1.1" xmlns="http://www.w3.org/2000/svg" xmlns:xlink="http://www.w3.org/1999/xlink">
<g id="Canvas" transform="translate(-1614 -5345)">
<g id="Shape">
<use xlink:href="#path0_fill" transform="translate(1614 5345)" fill="#9B9B9B"/>
</g>
</g>
<defs>
<path id="path0_fill" fill-rule="evenodd" d="M 7.24 15.58C 10.12 21.24 14.76 25.86 20.42 28.76L 24.82 24.36C 25.36 23.82 26.16 23.64 26.86 23.88C 29.1 24.62 31.52 25.02 34 25.02C 35.1 25.02 36 25.92 36 27.02L 36 34C 36 35.1 35.1 36 34 36C 15.22 36 0 20.78 0 2C 0 0.9 0.9 0 2 0L 9 0C 10.1 0 11 0.9 11 2C 11 4.5 11.4 6.9 12.14 9.14C 12.36 9.84 12.2 10.62 11.64 11.18L 7.24 15.58Z"/>
</defs>
</svg>
