<svg width="120" height="120" viewBox="0 0 120 120" version="1.1" xmlns="http://www.w3.org/2000/svg" xmlns:xlink="http://www.w3.org/1999/xlink">
<g id="Canvas" transform="translate(-1171 -1178)">
<g id="Mask">
<mask id="mask0_outline_ins">
<use xlink:href="#path0_fill" fill="white" transform="translate(1171 1178)"/>
</mask>
<g mask="url(#mask0_outline_ins)">
<use xlink:href="#path1_stroke_2x" transform="translate(1171 1178)" fill="url(#paint0_linear)"/>
</g>
</g>
</g>
<defs>
<linearGradient id="paint0_linear" x1="0" y1="0" x2="1" y2="0" gradientUnits="userSpaceOnUse" gradientTransform="matrix(0 61.3954 -61.3954 0 60 37.9904)">
<stop offset="0" stop-color="#87E78D"/>
<stop offset="1" stop-color="#44B54A"/>
</linearGradient>
<path id="path0_fill" fill-rule="evenodd" d="M 3.00465 30.5084C 4.17107 24.302 4.75427 21.1988 7.40647 16.8293C 9.23314 13.8199 13.8398 9.2131 16.8492 7.38632C 21.2186 4.73397 24.3134 4.15221 30.5032 2.98869C 39.1645 1.36058 49.5078 1.26782e-15 59.8873 0C 70.3204 0 80.7535 1.37464 89.4858 3.01389C 95.6982 4.1801 98.8044 4.7632 103.175 7.41521C 106.185 9.24163 110.794 13.8489 112.621 16.8585C 115.274 21.2284 115.855 24.3203 117.017 30.504C 118.643 39.1508 120 49.4767 120 59.8507C 120 70.3237 118.617 80.7966 116.971 89.5517C 115.808 95.7393 115.226 98.8331 112.575 103.201C 110.753 106.203 106.139 110.819 103.138 112.642C 98.7708 115.294 95.7039 115.872 89.5703 117.028C 80.9673 118.649 70.6814 120 60.2995 120C 49.8415 120 39.3836 118.629 30.6264 116.992C 24.3646 115.822 21.2337 115.237 16.8567 112.583C 13.8333 110.75 9.23343 106.152 7.39915 103.13C 4.74365 98.7541 4.15827 95.6294 2.98752 89.38C 1.35993 80.6919 6.6878e-16 70.3355 0 59.9842C 0 49.5966 1.36948 39.209 3.00465 30.5084Z"/>
<path id="path1_stroke_2x" d="M 16.8567 112.583L 14.2646 116.859L 16.8567 112.583ZM 7.39915 103.13L 3.12468 105.724L 7.39915 103.13ZM 116.971 89.5517L 112.057 88.6278L 116.971 89.5517ZM 112.575 103.201L 116.85 105.795L 112.575 103.201ZM 103.138 112.642L 100.542 108.369L 103.138 112.642ZM 103.175 7.41521L 100.581 11.6898L 103.175 7.41521ZM 117.017 30.504L 112.103 31.4278L 117.017 30.504ZM 7.40647 16.8293L 3.13222 14.235L 7.40647 16.8293ZM 31.4269 7.90263C 39.8991 6.31008 49.9164 5 59.8873 5L 59.8873 -5C 49.0992 -5 38.43 -3.58892 29.5795 -1.92525L 31.4269 7.90263ZM 59.8873 5C 69.9108 5 80.0177 6.32385 88.5633 7.92805L 90.4083 -1.90027C 81.4893 -3.57456 70.7301 -5 59.8873 -5L 59.8873 5ZM 112.103 31.4278C 113.693 39.8847 115 49.8849 115 59.8507L 125 59.8507C 125 49.0686 123.592 38.4169 121.931 29.5803L 112.103 31.4278ZM 115 59.8507C 115 69.9132 113.668 80.0594 112.057 88.6278L 121.885 90.4755C 123.566 81.5338 125 70.7342 125 59.8507L 115 59.8507ZM 88.6446 112.114C 80.2344 113.699 70.2742 115 60.2995 115L 60.2995 125C 71.0886 125 81.7003 123.598 90.496 121.941L 88.6446 112.114ZM 60.2995 115C 50.2493 115 40.1161 113.679 31.5449 112.077L 29.7079 121.907C 38.6512 123.578 49.4338 125 60.2995 125L 60.2995 115ZM 7.90203 88.4593C 6.3094 79.9579 5 69.9269 5 59.9842L -5 59.9842C -5 70.7442 -3.58954 81.426 -1.92698 90.3006L 7.90203 88.4593ZM 5 59.9842C 5 50.0066 6.31861 39.9455 7.91862 31.432L -1.90932 29.5849C -3.57965 38.4726 -5 49.1866 -5 59.9842L 5 59.9842ZM 31.5449 112.077C 25.2488 110.901 22.9577 110.435 19.4488 108.308L 14.2646 116.859C 19.5097 120.039 23.4804 120.743 29.7079 121.907L 31.5449 112.077ZM -1.92698 90.3006C -0.762403 96.5171 -0.057251 100.481 3.12468 105.724L 11.6736 100.536C 9.54455 97.0275 9.07895 94.7416 7.90203 88.4593L -1.92698 90.3006ZM 19.4488 108.308C 18.4247 107.687 16.8426 106.391 15.2168 104.766C 13.5909 103.141 12.2949 101.56 11.6736 100.536L 3.12468 105.724C 4.33764 107.723 6.25873 109.951 8.14726 111.839C 10.0358 113.727 12.2653 115.647 14.2646 116.859L 19.4488 108.308ZM 112.057 88.6278C 110.888 94.8426 110.427 97.1029 108.301 100.607L 116.85 105.795C 120.025 100.563 120.727 96.6359 121.885 90.4755L 112.057 88.6278ZM 90.496 121.941C 96.6085 120.79 100.505 120.091 105.733 116.915L 100.542 108.369C 97.0367 110.498 94.7994 110.955 88.6446 112.114L 90.496 121.941ZM 108.301 100.607C 107.686 101.619 106.391 103.2 104.762 104.829C 103.134 106.458 101.554 107.754 100.542 108.369L 105.733 116.915C 107.723 115.707 109.95 113.784 111.835 111.898C 113.719 110.013 115.642 107.785 116.85 105.795L 108.301 100.607ZM 88.5633 7.92805C 94.8054 9.09982 97.076 9.56286 100.581 11.6898L 105.769 3.14059C 100.533 -0.0364648 96.5911 -0.739626 90.4083 -1.90027L 88.5633 7.92805ZM 121.931 29.5803C 120.774 23.423 120.072 19.4977 116.895 14.2636L 108.347 19.4533C 110.475 22.9592 110.936 25.2176 112.103 31.4278L 121.931 29.5803ZM 100.581 11.6898C 101.598 12.3068 103.179 13.6022 104.806 15.2291C 106.434 16.856 107.729 18.4366 108.347 19.4533L 116.895 14.2636C 115.685 12.2707 113.763 10.0429 111.877 8.15719C 109.99 6.27147 107.762 4.35002 105.769 3.14059L 100.581 11.6898ZM 29.5795 -1.92525C 23.4169 -0.76684 19.4882 -0.0647717 14.2546 3.11217L 19.4437 11.6605C 22.9489 9.53271 25.2099 9.07126 31.4269 7.90263L 29.5795 -1.92525ZM 7.91862 31.432C 9.0905 25.1965 9.55348 22.9283 11.6807 19.4237L 3.13222 14.235C -0.044932 19.4693 -0.74837 23.4076 -1.90932 29.5849L 7.91862 31.432ZM 14.2546 3.11217C 12.2619 4.32181 10.0343 6.2432 8.1487 8.12887C 6.2631 10.0145 4.34179 12.2422 3.13222 14.235L 11.6807 19.4237C 12.2978 18.407 13.5932 16.8266 15.2199 15.1998C 16.8466 13.573 18.427 12.2776 19.4437 11.6605L 14.2546 3.11217Z"/>
</defs>
</svg>
